<?xml version="1.0" standalone="no"?>
<!DOCTYPE svg PUBLIC "-//W3C//DTD SVG 20010904//EN"
        "http://www.w3.org/TR/2001/REC-SVG-20010904/DTD/svg10.dtd">
<svg version="1.0" xmlns="http://www.w3.org/2000/svg"
     width="670.000000pt" height="185.000000pt" viewBox="0 0 670.000000 185.000000"
     preserveAspectRatio="xMidYMid meet">

    <g transform="translate(0.000000,185.000000) scale(0.100000,-0.100000)"
       fill="current" stroke="none">
        <path d="M1190 1654 c-75 -33 -117 -98 -126 -196 l-5 -63 25 47 c116 214 406
150 711 -156 236 -238 387 -519 389 -726 1 -130 -37 -205 -129 -253 l-30 -16
46 -1 c66 0 127 35 164 94 26 42 30 59 33 141 5 111 -12 201 -63 325 -122 295
-397 607 -657 744 -45 24 -107 51 -137 60 -68 20 -175 20 -221 0z"/>
        <path d="M819 1470 c-3 -17 -12 -26 -29 -29 l-25 -4 25 -6 c15 -4 27 -16 31
-31 l6 -25 4 25 c3 16 13 26 29 31 l25 6 -25 4 c-16 3 -26 13 -31 29 l-6 25
-4 -25z"/>
        <path d="M1255 1464 c-11 -3 -30 -7 -42 -9 -30 -7 -80 -51 -100 -89 -9 -17
-20 -65 -24 -106 l-7 -75 2 77 c1 83 -13 92 -21 14 -3 -25 -11 -46 -17 -46 -6
0 -24 -19 -39 -42 -15 -23 -27 -37 -27 -31 0 6 16 32 35 57 59 78 41 104 -26
37 -22 -22 -42 -53 -46 -72 -5 -28 -7 -30 -13 -14 -13 35 -33 -63 -27 -130 8
-80 43 -191 63 -199 14 -5 15 -16 10 -66 -7 -57 -6 -59 21 -74 47 -26 16 -18
-40 10 -114 57 -292 210 -414 356 -59 71 -83 91 -83 70 0 -16 162 -187 266
-283 113 -103 228 -177 290 -185 29 -4 35 -3 24 5 -12 9 -10 11 11 11 34 0 48
17 58 71 5 24 9 39 10 33 1 -6 19 -40 41 -75 38 -59 27 -54 -19 9 l-20 27 -11
-30 c-6 -16 -9 -38 -6 -48 3 -13 1 -15 -8 -8 -6 6 -18 6 -25 1 -30 -18 185
-256 306 -338 145 -98 291 -150 382 -135 l46 7 -35 7 c-27 5 -29 7 -10 8 57 3
106 25 143 63 20 21 37 43 37 48 0 6 -17 11 -37 11 l-38 2 41 6 c23 4 49 15
58 24 10 9 24 17 31 17 24 0 77 53 96 95 23 50 25 146 3 229 -70 270 -367 610
-629 719 -73 31 -170 49 -210 41z m135 -90 c74 -37 160 -172 146 -229 -21 -85
-184 -13 -244 107 -55 112 -5 174 98 122z m-305 -306 c91 -280 376 -589 635
-690 l84 -33 -59 -3 c-33 -2 -75 0 -93 3 -32 6 -33 7 -18 24 30 33 8 45 -26
14 -19 -17 -22 -16 -83 15 -34 18 -71 42 -80 52 -17 19 -17 20 6 39 31 25 18
39 -15 17 -14 -9 -29 -16 -35 -16 -13 0 -109 88 -122 112 -9 16 -7 23 10 35
12 8 21 18 21 24 0 14 -26 11 -40 -6 -7 -8 -16 -15 -21 -15 -10 0 -109 139
-109 152 0 6 10 18 23 28 32 27 13 36 -25 12 l-32 -21 -23 122 c-13 67 -25
158 -28 202 -4 66 -3 72 4 33 5 -26 17 -71 26 -100z m633 93 c73 -38 152 -146
152 -207 0 -35 -26 -64 -57 -64 -59 0 -150 75 -193 159 -51 101 1 162 98 112z
m-621 -13 c-3 -8 -6 -5 -6 6 -1 11 2 17 5 13 3 -3 4 -12 1 -19z m-127 -48 c-5
-22 -8 -27 -9 -13 -1 21 9 56 14 51 2 -2 0 -19 -5 -38z m-43 -22 c-2 -13 -4
-5 -4 17 -1 22 1 32 4 23 2 -10 2 -28 0 -40z m201 -23 c0 -5 -6 4 -13 20 -8
17 -14 37 -14 45 0 8 7 -1 14 -20 7 -19 13 -39 13 -45z m211 45 c51 -26 128
-113 143 -161 13 -45 4 -85 -24 -102 -44 -28 -156 46 -208 137 -64 111 -16
180 89 126z m-389 -85 c4 35 18 -35 18 -95 l0 -55 -19 75 c-10 41 -18 84 -18
95 1 13 4 10 9 -10 6 -22 8 -25 10 -10z m219 -50 c0 -5 -8 6 -19 25 -11 19
-19 40 -19 45 0 6 8 -6 19 -25 11 -19 19 -39 19 -45z m431 0 c33 -17 65 -69
56 -91 -9 -23 -51 -16 -78 14 -32 35 -41 61 -27 78 14 17 14 17 49 -1z m-374
-96 c24 -41 33 -61 20 -44 -24 28 -87 137 -72 124 4 -4 27 -40 52 -80z m649
-53 c139 -58 228 -276 113 -276 -103 0 -247 176 -207 253 22 40 40 45 94 23z
m-239 -37 c47 -29 111 -110 126 -161 24 -81 -31 -120 -111 -79 -108 56 -186
204 -134 256 21 21 70 15 119 -16z m-345 -6 c13 -16 12 -17 -3 -4 -10 7 -18
15 -18 17 0 8 8 3 21 -13z m274 -264 c77 -56 96 -73 50 -45 -87 53 -196 147
-266 229 -41 48 -31 40 47 -36 54 -53 131 -120 169 -148z m-315 -25 c35 -38
27 -32 -21 17 -43 43 -87 93 -99 111 -12 19 -3 11 22 -17 23 -27 68 -77 98
-111z m186 -59 c77 -51 90 -64 35 -34 -56 30 -183 140 -230 199 -20 25 1 8 50
-40 47 -47 112 -103 145 -125z m374 -41 c22 -8 28 -13 15 -13 -11 0 -38 8 -60
19 -41 20 -17 17 45 -6z m-375 -49 c78 -52 92 -64 55 -45 -31 16 -140 91 -140
97 0 5 -3 7 85 -52z m110 17 c-3 -3 -11 0 -18 7 -9 10 -8 11 6 5 10 -3 15 -9
12 -12z m65 -22 c8 -5 11 -10 5 -10 -5 0 -17 5 -25 10 -8 5 -10 10 -5 10 6 0
17 -5 25 -10z m225 0 c-7 -11 -85 -34 -92 -27 -2 3 9 8 26 12 17 4 33 11 36
16 4 5 13 9 21 9 8 0 12 -4 9 -10z m-150 -20 c13 -6 15 -9 5 -9 -8 0 -22 4
-30 9 -18 12 -2 12 25 0z m-55 -76 c36 -13 52 -22 35 -19 -28 6 -116 43 -105
44 3 0 34 -11 70 -25z"/>
        <path d="M524 1376 c-8 -8 -7 -15 0 -22 8 -8 15 -7 22 0 8 8 7 15 0 22 -8 8
-15 7 -22 0z"/>
        <path d="M685 1293 c-4 -29 -12 -56 -18 -60 -7 -5 -37 -13 -67 -19 l-55 -10
50 -8 c74 -13 82 -19 90 -78 8 -57 18 -49 30 24 5 34 9 38 43 43 20 4 48 10
62 14 22 7 20 9 -20 15 -75 12 -79 15 -85 54 -12 73 -22 81 -30 25z"/>
        <path d="M356 1031 l-89 -90 26 -38 c83 -119 223 -243 372 -328 82 -47 96 -61
22 -24 -124 64 -283 196 -377 315 -29 35 -56 61 -61 58 -14 -8 26 -60 126
-159 101 -101 208 -178 317 -230 65 -31 78 -34 118 -27 l45 9 -40 17 c-102 43
-135 60 -133 67 2 4 31 32 66 63 l63 56 72 -39 c70 -37 137 -59 137 -43 0 4
-17 14 -37 21 -113 41 -310 207 -496 419 -20 23 -38 42 -40 42 -1 0 -42 -40
-91 -89z m169 -32 c88 -104 90 -82 -19 -179 l-58 -52 -35 34 c-19 18 -53 57
-75 86 l-41 53 74 75 c40 41 74 74 75 74 1 0 36 -41 79 -91z m179 -186 c39
-37 72 -70 74 -74 4 -8 -78 -87 -113 -108 -20 -13 -27 -11 -71 19 -74 51 -125
93 -122 101 5 13 141 129 151 129 5 0 42 -30 81 -67z"/>
        <path d="M147 873 c12 -32 80 -141 128 -203 117 -153 309 -273 455 -287 105
-10 241 43 295 115 l19 26 -34 -21 c-19 -12 -59 -28 -89 -37 -187 -55 -365 30
-674 324 -59 56 -104 94 -100 83z"/>
        <path d="M1116 395 c-4 -16 -9 -35 -11 -41 -2 -7 -21 -16 -42 -21 l-38 -10 30
-7 c52 -13 55 -15 55 -38 0 -13 4 -29 9 -37 6 -10 11 -2 16 27 6 37 9 40 48
47 l42 8 -41 10 c-38 9 -42 13 -51 51 l-10 41 -7 -30z"/>
        <path d="M1236 211 c-4 -5 -2 -12 3 -15 5 -4 12 -2 15 3 4 5 2 12 -3 15 -5 4
-12 2 -15 -3z"/>
        <path d="M1013 161 c-14 -23 7 -44 25 -24 11 11 10 16 -1 27 -11 12 -15 11
-24 -3z"/>
    </g>

    <g transform="translate(0.000000,185.000000) scale(0.100000,-0.100000)"
       fill="white" stroke="none">
        <path d="M2749 1327 c-126 -36 -203 -150 -203 -302 1 -86 15 -139 53 -195 76
-113 241 -151 370 -85 57 28 84 57 110 115 31 69 30 70 -52 70 -70 0 -72 -1
-85 -29 -14 -33 -65 -61 -109 -61 -44 0 -95 33 -117 76 -26 49 -28 163 -4 209
31 59 64 80 125 80 49 0 58 -3 84 -33 16 -18 29 -39 29 -47 0 -12 15 -15 75
-15 87 0 89 4 51 85 -25 56 -69 98 -125 121 -50 21 -147 26 -202 11z"/>
        <path  d="M6263 1330 c-95 -22 -163 -97 -163 -180 0 -87 51 -138 172 -169 46
-12 97 -28 115 -36 61 -27 51 -87 -19 -105 -54 -15 -105 4 -133 48 -19 29 -24
31 -81 32 -33 0 -63 -2 -66 -5 -11 -11 14 -90 37 -121 42 -55 106 -78 211 -78
77 -1 98 3 140 25 89 46 124 136 86 222 -24 55 -72 89 -157 112 -115 31 -145
45 -151 71 -13 53 63 88 130 60 19 -8 37 -24 41 -35 6 -19 14 -21 76 -21 79 0
83 5 49 76 -43 87 -168 133 -287 104z"/>
        <path  d="M3217 1324 c-4 -4 -7 -142 -7 -306 l0 -298 75 0 75 0 -2 303 -3 302
-65 3 c-36 2 -69 0 -73 -4z"/>
        <path  d="M3475 1317 c-3 -7 -4 -143 -3 -302 l3 -290 72 -3 73 -3 2 176 3 176
120 -175 120 -175 63 -1 62 0 0 305 0 305 -70 0 -70 0 0 -168 c0 -93 -3 -172
-6 -175 -4 -4 -61 72 -126 168 l-119 175 -60 0 c-39 0 -61 -4 -64 -13z"/>
        <path  d="M4110 1025 l0 -305 210 0 210 0 0 60 0 60 -140 0 -140 0 0 60 0 59
128 3 127 3 3 57 3 57 -128 3 -128 3 0 60 0 60 138 3 137 3 0 59 0 60 -210 0
-210 0 0 -305z"/>
        <path  d="M4650 1290 c-1 -22 -1 -112 -1 -200 0 -88 0 -207 1 -265 l0 -105 70
0 70 0 2 188 3 187 74 -188 73 -188 46 3 45 3 71 180 71 180 5 -180 5 -180 70
0 70 0 0 300 0 300 -88 3 -88 3 -28 -63 c-15 -35 -50 -118 -77 -185 -27 -68
-53 -121 -59 -120 -5 2 -43 85 -84 185 l-74 182 -88 0 -89 0 0 -40z"/>
        <path  d="M5625 1318 c-41 -113 -195 -576 -195 -585 0 -9 21 -13 74 -13 l74 0
22 65 22 65 103 0 103 0 22 -65 22 -65 74 0 c64 0 74 2 73 18 0 9 -44 145 -98
302 l-97 285 -97 3 c-72 2 -99 -1 -102 -10z m135 -243 c17 -49 30 -95 30 -102
0 -9 -18 -13 -65 -13 -36 0 -65 4 -65 8 0 17 62 204 66 200 2 -3 18 -45 34
-93z"/>
    </g>
</svg>
