<!--<svg viewBox="0 0 550 48" fill="none" xmlns="http://www.w3.org/2000/svg">-->
<!--    <g>-->
<!--        <path d="M-62 94V90.0411C-62 90.0411 -1.812 0.262393 274.957 2.02564C551.725 3.78888 612 89.9123 612 89.9123V94H-62Z"></path>-->
<!--        <path d="M3.5 44.5008C3.5 44.5008 49.4997 3.07649 274.5 3.49931C499.5 3.92213 546.5 44.5009 546.5 44.5009" stroke="white" stroke-width="6" stroke-linecap="round"></path>-->
<!--    </g>-->
<!--    <defs>-->
<!--        <linearGradient x1="274.957" y1="0.259525" x2="275.071" y2="93.9999" gradientUnits="userSpaceOnUse">-->
<!--        <stop stop-color="white"></stop>-->
<!--            <stop offset="0.0729167" stop-color="white" stop-opacity="0.2"></stop>-->
<!--            <stop offset="0.511003" stop-color="#2A2A2A" stop-opacity="0"></stop>-->
<!--        </linearGradient>-->
<!--        <clipPath>-->
<!--            <rect width="550" height="48" fill="white"></rect>-->
<!--        </clipPath>-->
<!--    </defs>-->
<!--</svg>-->

<svg width="550" height="48" viewBox="0 0 550 48" fill="none" xmlns="http://www.w3.org/2000/svg">
    <g>
        <path d="M-62 94V90.0411C-62 90.0411 -1.812 0.262393 274.957 2.02564C551.725 3.78888 612 89.9123 612 89.9123V94H-62Z" fill="url(#paintLinear)"></path>
        <path d="M3.5 44.5008C3.5 44.5008 49.4997 3.07649 274.5 3.49931C499.5 3.92213 546.5 44.5009 546.5 44.5009" stroke="white" stroke-width="6" stroke-linecap="round"></path>
    </g>
    <defs>
        <linearGradient id="paintLinear" x1="274.957" y1="0.259525" x2="275.071" y2="93.9999" gradientUnits="userSpaceOnUse">
            <stop stop-color="white"></stop>
            <stop offset="0.0729167" stop-color="white" stop-opacity="0.2"></stop>
            <stop offset="0.511003" stop-color="#2A2A2A" stop-opacity="0"></stop>
        </linearGradient>
    </defs>
</svg>