<svg fill="current" xmlns="http://www.w3.org/2000/svg"
        width="150.000000pt" height="60.000000pt" viewBox="30 36 330.000000 65.000000"
        preserveAspectRatio="xMidYMid meet">

    <g transform="translate(0.000000,144.000000) scale(0.100000,-0.100000)"
       fill="#6C43BFE5" stroke="none">
        <path d="M282 1188 c-17 -17 -17 -859 0 -876 9 -9 166 -12 646 -12 l634 0
-203 210 c-172 180 -202 215 -202 241 0 26 24 55 159 192 88 89 179 183 204
210 l44 47 -635 0 c-481 0 -638 -3 -647 -12z m198 -87 c12 -23 13 -81 1 -99
-5 -9 -25 -12 -62 -10 l-54 3 -3 49 c-5 70 0 76 57 76 39 0 53 -4 61 -19z
m245 -46 l0 -60 -55 0 -55 0 -3 49 c-5 72 -1 78 60 74 l53 -3 0 -60z m244 51
c7 -8 11 -36 9 -63 l-3 -48 -54 -3 c-37 -2 -57 1 -62 10 -13 20 -11 92 3 106
17 17 93 15 107 -2z m251 -5 c12 -23 13 -81 1 -99 -5 -9 -25 -12 -62 -10 l-54
3 -3 49 c-5 70 0 76 57 76 39 0 53 -4 61 -19z m-736 -607 c11 -29 6 -91 -8
-103 -8 -7 -36 -11 -63 -9 l-48 3 -3 49 c-5 71 -1 76 62 76 40 0 55 -4 60 -16z
m241 -49 l0 -60 -55 0 -55 0 -3 49 c-5 72 -1 78 60 74 l53 -3 0 -60z m253 21
c2 -22 1 -50 -2 -63 -6 -20 -12 -23 -54 -23 -58 0 -72 12 -72 61 0 65 6 70 69
67 l56 -3 3 -39z m246 28 c11 -29 6 -91 -8 -103 -8 -7 -36 -11 -63 -9 l-48 3
-3 49 c-5 71 -1 76 62 76 40 0 55 -4 60 -16z"/>
        <path d="M1516 909 c-87 -90 -136 -148 -136 -161 0 -14 49 -70 140 -162 l140
-141 0 303 c0 166 -2 302 -4 302 -2 0 -65 -63 -140 -141z"/>
        <path d="M1846 920 c-35 -11 -63 -36 -83 -74 -20 -39 -14 -133 12 -169 28 -38
93 -61 149 -53 44 7 56 19 56 58 0 19 0 19 -26 -1 -67 -53 -154 1 -154 95 0
85 85 142 148 98 21 -15 22 -14 22 14 0 22 -6 31 -22 36 -30 8 -66 6 -102 -4z"/>
        <path d="M3460 917 c-46 -23 -60 -86 -27 -125 6 -8 33 -25 59 -38 43 -22 49
-29 46 -52 -4 -38 -46 -51 -93 -29 -33 16 -35 16 -35 -1 0 -35 17 -46 73 -46
45 -1 60 3 81 23 48 45 29 118 -38 150 -23 10 -48 27 -56 36 -30 36 32 71 80
45 18 -9 20 -8 20 13 0 36 -60 49 -110 24z"/>
        <path d="M2042 883 c11 -39 6 -207 -6 -235 -7 -16 -3 -18 32 -18 l41 0 -10 32
c-5 18 -9 69 -9 113 0 44 4 95 9 113 l10 32 -39 0 -38 0 10 -37z"/>
        <path d="M2191 888 c5 -18 9 -69 9 -113 0 -44 -4 -95 -9 -113 l-10 -32 40 0
c30 0 38 3 32 13 -7 11 -22 217 -15 217 1 0 7 -12 13 -27 5 -16 33 -67 62
-115 50 -86 52 -88 90 -88 34 0 37 2 27 19 -5 11 -10 68 -10 126 0 58 5 115
10 126 10 17 7 19 -29 19 l-40 0 10 -32 c5 -18 9 -69 9 -113 l0 -80 -44 80
c-81 150 -77 145 -118 145 -37 0 -37 0 -27 -32z"/>
        <path d="M2510 901 c5 -11 10 -68 10 -126 0 -58 -5 -115 -10 -126 -10 -18 -7
-19 85 -19 l95 0 0 30 c0 27 -2 30 -19 20 -11 -5 -38 -10 -60 -10 l-41 0 0 46
0 46 43 -4 c37 -2 42 0 45 20 3 20 -1 22 -42 22 l-46 0 0 40 0 40 41 0 c22 0
48 -4 58 -9 15 -9 17 -6 13 20 l-4 29 -89 0 c-86 0 -89 -1 -79 -19z"/>
        <path d="M2760 895 c10 -26 -1 -215 -15 -247 -6 -15 -2 -18 28 -18 35 0 36 1
34 38 -1 20 0 66 1 102 l2 65 45 -79 c25 -44 45 -83 45 -88 0 -16 15 -8 26 15
6 12 27 52 46 88 l35 65 6 -87 c4 -49 4 -95 1 -104 -5 -12 2 -15 35 -15 40 0
41 1 30 22 -7 14 -12 71 -13 145 l-1 123 -35 -1 c-34 0 -36 -3 -75 -84 -22
-47 -42 -84 -45 -84 -3 0 -23 38 -45 84 -40 83 -40 84 -77 85 -36 0 -37 -1
-28 -25z"/>
        <path d="M3203 905 c6 -15 -49 -189 -77 -243 l-17 -32 35 0 c30 0 35 3 38 28
3 26 6 27 61 30 57 3 57 3 63 -27 6 -28 10 -31 47 -31 38 0 39 1 23 18 -19 22
-86 215 -86 249 0 21 -5 23 -46 23 -36 0 -45 -3 -41 -15z m74 -172 c-3 -2 -20
-3 -39 -1 l-34 3 20 65 20 65 18 -64 c11 -34 17 -65 15 -68z"/>
    </g>
</svg>